<?xml version="1.0" encoding="utf-8"?>
<svg enable-background="new 0 0 500 500" viewBox="0 0 300 300" xmlns="http://www.w3.org/2000/svg">
  <path clip-rule="evenodd" d="M 145.396 74.067 C 108.196 76.367 77.696 105.967 74.396 143.167 C 73.296 156.167 75.396 168.567 80.096 179.567 C 80.596 180.867 80.796 182.267 80.496 183.567 L 73.896 212.967 C 73.896 213.167 73.996 213.267 74.096 213.267 L 102.396 210.767 C 103.596 210.667 104.896 211.067 105.896 211.867 C 118.596 220.967 134.196 226.267 150.996 226.067 C 192.796 225.567 226.696 190.567 226.096 148.767 C 225.396 105.767 189.096 71.467 145.396 74.067 Z" fill="#4bb3fd" fill-rule="evenodd"/>
  <g fill="#fff" transform="matrix(1, 0, 0, 1, 73.896149, 73.966187)">
    <path d="m123.6 109.8-25.7 10.4-34.5-85.9 25.7-10.4z"/>
    <path d="m72.8 70.5-30.3 12.2 18.1-42.7z"/>
    <path d="m93.5 121.9-49.5-34.4 30.7-12.3z"/>
    <path d="m58.2 103.6-29.6 11.9 10.7-25.1z"/>
  </g>
</svg>