<?xml version="1.0" encoding="utf-8"?>
<svg width="120" height="31" viewBox="0 0 280 280" class="logo" xmlns="http://www.w3.org/2000/svg">
  <title>logo</title>
  <path class="logo__airship logo__color-1" fill="#1b263b" d="M 225.369 170.851 C 233.775 166.201 241.075 159.787 246.769 152.051 C 251.269 145.751 252.669 141.351 252.669 139.751 C 252.669 138.151 250.369 133.351 245.169 126.551 C 238.86 118.104 230.542 111.367 220.969 106.951 C 208.669 101.351 194.169 98.551 176.769 98.551 C 165.45 98.69 154.156 99.626 142.969 101.351 C 135.769 102.351 128.669 103.651 121.569 105.251 L 120.069 105.551 L 114.569 94.251 C 113.387 92.147 111.905 90.226 110.169 88.551 C 108.507 86.959 106.577 85.673 104.469 84.751 C 102.654 83.93 100.737 83.358 98.769 83.051 C 97.151 82.769 95.511 82.635 93.869 82.651 L 60.069 82.651 C 51.332 83.472 46.76 93.443 51.839 100.599 C 53.76 103.305 56.765 105.04 60.069 105.351 L 94.669 105.351 L 97.769 111.651 L 92.469 113.451 C 87.769 115.051 83.169 116.851 78.869 118.751 L 77.269 119.651 C 75.969 120.551 74.069 121.651 73.169 123.051 C 72.347 124.323 71.802 125.754 71.569 127.251 L 71.269 128.851 L 37.869 129.151 C 31.639 129.358 26.851 134.738 27.369 140.951 C 27.796 146.508 32.212 150.923 37.769 151.351 L 71.169 151.151 L 71.469 152.751 C 71.778 154.446 72.461 156.052 73.469 157.451 C 75.042 159.288 77.079 160.67 79.369 161.451 L 79.469 161.451 C 83.769 163.251 88.269 165.051 92.769 166.551 L 97.769 168.251 L 94.569 174.651 L 60.069 174.651 C 51.332 175.472 46.76 185.443 51.839 192.599 C 53.76 195.305 56.765 197.04 60.069 197.351 C 63.969 197.351 97.169 197.151 98.769 196.951 C 100.737 196.643 102.654 196.072 104.469 195.251 C 106.557 194.292 108.481 193.01 110.169 191.451 C 111.882 189.779 113.332 187.857 114.469 185.751 L 119.469 175.751 L 120.169 174.351 L 121.669 174.651 C 126.736 175.717 131.936 176.717 137.269 177.651 C 142.469 178.551 148.569 179.251 154.269 179.851 L 155.369 179.851 L 156.269 181.651 C 164.686 199.555 189.328 201.633 200.625 185.392 C 201.533 184.087 202.317 182.7 202.969 181.251 C 203.269 180.651 204.069 178.551 204.069 178.551 L 205.169 178.251 C 213.169 176.251 219.969 173.851 225.369 170.751 Z"/>
  <path class="logo__airship logo__color-2" d="M 37.869 143.051 C 35.559 143.049 34.117 140.549 35.273 138.549 C 36.429 136.55 39.316 136.551 40.469 138.552 C 40.749 139.037 40.888 139.591 40.869 140.151 C 40.869 140.944 40.544 141.703 39.969 142.251 C 39.389 142.762 38.643 143.047 37.869 143.051 Z M 52.669 143.151 L 46.769 143.151 C 44.459 143.151 43.016 140.651 44.171 138.651 C 44.707 137.722 45.697 137.151 46.769 137.151 L 52.669 137.151 C 54.978 137.151 56.422 139.651 55.267 141.651 C 54.731 142.579 53.741 143.151 52.669 143.151 Z M 232.069 150.451 L 207.269 150.451 L 199.569 135.551 L 160.069 135.551 C 158.412 135.551 157.069 134.207 157.069 132.551 C 157.01 130.87 158.388 129.492 160.069 129.551 L 203.169 129.551 L 210.769 144.551 L 237.969 144.551 Z M 113.769 143.151 L 68.569 143.151 C 66.912 143.151 65.569 141.807 65.569 140.151 C 65.51 138.47 66.888 137.092 68.569 137.151 L 113.669 137.151 C 115.978 137.112 117.463 139.588 116.342 141.607 C 115.822 142.544 114.841 143.133 113.769 143.151 Z" style="fill: rgb(11, 179, 191);"/>
  <path class="logo__airship logo__color-3" d="M 62.269 184.051 C 63.655 185.898 62.521 188.553 60.228 188.829 C 59.46 188.922 58.687 188.714 58.069 188.251 C 57.042 187.244 56.874 185.649 57.669 184.451 C 58.562 183.07 60.423 182.707 61.769 183.651 Z M 60.169 90.851 C 57.86 90.796 56.358 93.261 57.465 95.288 C 58.571 97.314 61.457 97.383 62.659 95.411 C 63.702 93.7 62.806 91.466 60.869 90.951 Z M 69.369 183.051 C 67.059 183.051 65.616 185.551 66.771 187.551 C 67.925 189.551 70.812 189.551 71.967 187.551 C 72.23 187.095 72.369 186.577 72.369 186.051 C 72.317 184.416 71.004 183.103 69.369 183.051 Z M 69.369 90.851 C 67.06 90.796 65.558 93.261 66.665 95.288 C 67.771 97.314 70.657 97.383 71.859 95.411 C 72.902 93.7 72.006 91.466 70.069 90.951 Z M 77.869 132.751 C 77.899 131.739 78.422 130.805 79.269 130.251 C 88.966 124.634 99.138 119.883 109.669 116.051 L 101.069 99.351 C 100.095 97.493 98.166 96.336 96.069 96.351 L 84.669 96.351 C 82.359 96.351 80.916 93.851 82.071 91.851 C 82.607 90.922 83.597 90.351 84.669 90.351 L 96.269 90.351 C 100.611 90.358 104.585 92.789 106.569 96.651 L 116.769 116.351 C 117.474 117.953 116.761 119.824 115.169 120.551 L 114.869 120.551 C 105.259 123.869 95.93 127.949 86.969 132.751 Z M 244.569 138.551 C 244.469 138.251 240.669 129.951 230.569 121.851 C 220.469 113.751 204.769 105.551 178.069 105.551 C 159.069 105.551 142.969 107.351 126.169 111.551 C 125.574 111.766 125.053 112.148 124.669 112.651 C 123.883 113.569 123.725 114.871 124.269 115.951 L 141.469 150.051 L 180.269 150.051 C 181.926 150.051 183.269 148.707 183.269 147.051 C 183.328 145.37 181.95 143.992 180.269 144.051 L 145.169 144.051 L 131.269 116.351 C 146.664 112.931 162.4 111.287 178.169 111.451 C 202.869 111.451 218.169 119.451 226.569 126.251 C 231.39 129.977 235.49 134.552 238.669 139.751 C 236.469 144.851 223.969 167.251 179.469 167.251 C 147.89 167.196 116.678 160.484 87.869 147.551 L 77.869 147.551 C 77.936 148.551 78.499 149.452 79.369 149.951 C 80.269 150.451 91.369 156.651 109.969 162.451 L 100.969 179.851 C 99.995 181.708 98.066 182.866 95.969 182.851 L 84.469 182.851 C 82.159 182.851 80.716 185.351 81.871 187.351 C 82.407 188.279 83.397 188.851 84.469 188.851 L 96.069 188.851 C 100.411 188.844 104.385 186.413 106.369 182.551 L 115.969 164.051 C 130.897 168.274 146.204 171.02 161.669 172.251 C 163.332 185.852 179.094 192.553 190.042 184.312 C 194.073 181.278 196.627 176.676 197.069 171.651 C 209.169 169.851 222.269 165.751 232.569 157.051 C 242.869 148.351 244.769 140.851 244.869 140.551 C 245.022 139.87 244.915 139.157 244.569 138.551 Z M 179.169 182.151 C 173.573 182.134 168.744 178.222 167.569 172.751 C 171.369 172.951 175.369 173.051 179.369 173.051 C 183.175 173.084 186.98 172.917 190.769 172.551 C 189.712 178.122 184.84 182.154 179.169 182.151 Z" style="fill: rgb(11, 179, 191);"/>
</svg>