<?xml version="1.0" encoding="utf-8"?>
<svg viewBox="0 0 414.041 500" xmlns="http://www.w3.org/2000/svg" xmlns:bx="https://boxy-svg.com">
  <defs>
    <bx:grid x="2.168" y="1.33" width="74.752" height="64.401"/>
  </defs>
  <g transform="matrix(0.760188, 0, 0, 0.760188, 174.355209, 58.74477)" style="">
    <path style="fill: rgb(251, 218, 166); stroke: rgb(251, 218, 166);" d="M -69.584 -38.005 C -211.163 -53.39 -199.448 88.04 -202.793 100 C -203.781 112.295 -211.882 119.03 -225.388 182.14 C -238.894 245.25 -125.85 319.866 -111.902 306.926 L 26.7 319.901 C 26.7 319.901 149.979 257.335 150.201 257.335 C 150.423 257.335 149.849 35.38 149.849 35.38 L 136.231 -2.553 C 136.231 -2.553 108.38 -66.516 78.218 -73.098 C 12.909 -87.351 -33.25 -34.057 -69.584 -38.005 Z"/>
    <path style="fill: rgb(199, 39, 40); stroke: rgb(199, 39, 40);" d="M -81.161 419.199 C -73.876 496.876 106.323 590.342 155.722 579.609 C 216.18 566.474 281.984 462.279 308.848 406.547 C 351.092 318.906 172.018 243.862 172.018 243.862 C 172.018 243.862 -95.774 263.381 -81.161 419.199 Z"/>
  </g>
  <path style="stroke: rgb(0, 0, 0); fill: rgba(216, 216, 216, 0.55);"/>
  <path style="stroke: rgb(0, 0, 0); fill: rgba(216, 216, 216, 0.55);"/>
  <path style="stroke: rgb(0, 0, 0); fill: rgba(216, 216, 216, 0.55);"/>
  <path style="stroke: rgb(0, 0, 0); fill: rgba(216, 216, 216, 0.55);"/>
  <path style="stroke: rgb(0, 0, 0); fill: rgba(216, 216, 216, 0.55);"/>
  <path style="stroke: rgb(0, 0, 0); fill: rgba(216, 216, 216, 0.55);"/>
  <path style="stroke: rgb(0, 0, 0); fill: rgba(216, 216, 216, 0.55);"/>
  <path style="stroke: rgb(0, 0, 0); fill: rgba(216, 216, 216, 0.55);"/>
  <path style="stroke: rgb(0, 0, 0); fill: rgba(216, 216, 216, 0.55);"/>
  <path style="stroke: rgb(0, 0, 0); fill: rgba(216, 216, 216, 0.55);" d="M -264.999 164.047"/>
  <path style="stroke: rgb(0, 0, 0); fill: rgba(216, 216, 216, 0.55);" d="M 193.051 82.744"/>
  <path style="stroke: rgb(0, 0, 0); fill: rgba(216, 216, 216, 0.55);" d="M -70.99 65.553"/>
</svg>