<?xml version="1.0" encoding="utf-8"?>
<svg version="1.1" width="498" height="826" viewBox="0 0 6000 6000" xmlns="http://www.w3.org/2000/svg" xmlns:bx="https://boxy-svg.com">
  <defs>
    <bx:grid x="0" y="0" width="134.118" height="168.631"/>
  </defs>
  <title>Berliner Baer</title>
  <desc>der Berliner Baer ist das Wappentier der Stadt Berlin</desc>
  <path d="M 3374.848 1659.896 C 3318.848 1632.896 3217.848 1648.896 3124.848 1633.896 C 2937.848 1603.896 2914.848 1550.896 2914.848 1511.896 C 2913.848 1470.896 2876.848 1468.896 2876.848 1512.896 C 2877.848 1772.896 3268.848 1639.896 3379.848 1706.896 M 2102.848 1570.896 C 2103.848 1500.896 2055.848 1455.896 2013.848 1451.896 C 2038.848 1480.896 2043.848 1522.896 2047.848 1563.896 C 2039.848 1505.896 1996.848 1467.896 1959.848 1465.896 C 1979.848 1486.896 1990.848 1529.896 1992.848 1571.896 C 1986.848 1539.896 1956.848 1491.896 1906.848 1486.896 C 1929.848 1510.896 1936.848 1555.896 1941.848 1596.896 C 1934.848 1561.896 1898.848 1521.896 1858.848 1518.896 C 1875.848 1532.896 1889.848 1583.896 1892.848 1622.896 C 1887.848 1606.896 1859.848 1567.896 1815.848 1562.896 C 1838.848 1583.896 1848.848 1634.896 1852.848 1674.896 M 2027.848 2628.896 C 2015.848 2573.896 1967.848 2515.896 1913.848 2522.896 C 1938.848 2539.896 1957.848 2603.896 1964.848 2644.896 C 1947.848 2598.896 1905.848 2549.896 1855.848 2555.896 C 1882.848 2579.896 1898.848 2638.896 1908.848 2682.896 C 1881.848 2631.896 1848.848 2593.896 1799.848 2599.896 C 1832.848 2631.896 1844.848 2687.896 1852.848 2730.896 C 1836.848 2694.896 1799.848 2650.896 1749.848 2655.896 C 1780.848 2683.896 1793.848 2744.896 1804.848 2789.896 C 1784.848 2762.896 1754.848 2724.896 1707.848 2728.896 C 1738.848 2758.896 1752.848 2817.896 1765.848 2862.896 M 2187.848 4585.896 C 2134.848 4553.896 2061.848 4564.896 2027.848 4608.896 C 2065.848 4601.896 2121.848 4622.896 2143.848 4640.896 C 2107.848 4617.896 2032.848 4631.896 2003.848 4671.896 C 2037.848 4662.896 2092.848 4685.896 2121.848 4702.896 C 2083.848 4689.896 2024.848 4692.896 1987.848 4737.896 C 2018.848 4730.896 2069.848 4747.896 2102.848 4766.896 C 2055.848 4755.896 2009.848 4773.896 1982.848 4805.896 C 2023.848 4796.896 2069.848 4820.896 2097.848 4833.896 C 2044.848 4832.896 2012.848 4853.896 1993.848 4875.896 C 2027.848 4868.896 2079.848 4886.896 2117.848 4906.896 M 3578.848 4914.896 C 3509.848 4905.896 3452.848 4947.896 3435.848 4996.896 C 3454.848 4981.896 3514.848 4972.896 3553.848 4984.896 C 3499.848 4981.896 3445.848 5025.896 3434.848 5065.896 C 3456.848 5047.896 3526.848 5042.896 3552.848 5053.896 C 3503.848 5055.896 3456.848 5092.896 3442.848 5133.896 C 3465.848 5118.896 3529.848 5112.896 3565.848 5121.896 C 3512.848 5129.896 3474.848 5167.896 3462.848 5202.896 C 3494.848 5181.896 3536.848 5183.896 3588.848 5186.896 C 3534.848 5206.896 3516.848 5229.896 3498.848 5265.896 C 3528.848 5246.896 3581.848 5245.896 3633.848 5249.896" fill="#f33b1d"/>
  <path d="M 3220.848 1243.896 L 2976.848 1252.896 C 2964.848 1253.896 2955.848 1259.896 2955.848 1273.896 C 2956.848 1361.896 2973.848 1418.896 3036.848 1464.896 C 3028.848 1513.896 3033.848 1538.896 3084.848 1579.896 C 3089.848 1539.896 3105.848 1521.896 3130.848 1504.896 C 3132.848 1505.896 3134.848 1505.896 3135.848 1506.896 C 3132.848 1524.896 3132.848 1543.896 3136.848 1554.896 C 3146.848 1582.896 3195.848 1583.896 3208.848 1563.896 C 3220.848 1592.896 3245.848 1593.896 3265.848 1593.896 C 3286.848 1593.896 3296.848 1578.896 3303.848 1564.896 C 3315.848 1574.896 3327.848 1585.896 3338.848 1599.896 C 3373.848 1647.896 3379.848 1709.896 3379.848 1768.896 C 3368.848 1769.896 3357.848 1770.896 3346.848 1771.896 L 3346.848 1747.896 C 3345.848 1713.896 3266.848 1707.896 3248.848 1736.896 C 3228.848 1714.896 3166.848 1718.896 3166.848 1753.896 L 3166.848 1764.896 C 3152.848 1746.896 3141.848 1727.896 3132.848 1708.896 C 3107.848 1724.896 3092.848 1736.896 3096.848 1793.896 C 3085.848 1794.896 3074.848 1795.896 3064.848 1796.896 C 3065.848 1862.896 3094.848 1880.896 3330.848 1875.896 C 3336.848 1941.896 3270.848 1978.896 3221.848 2009.896 C 3093.848 2082.896 2958.848 2162.896 2885.848 2296.896 C 2824.848 2402.896 2809.848 2528.896 2816.848 2650.896 L 2886.848 2619.896 L 2894.848 2657.896 C 2768.848 2717.896 2538.848 2839.896 2387.848 2909.896 C 2350.848 2926.896 2254.848 2950.896 2234.848 2916.896 C 2165.848 2797.896 2110.848 2707.896 2030.848 2616.896 C 1989.848 2569.896 1717.848 2794.896 1767.848 2870.896 C 1881.848 3043.896 2067.848 3291.896 2377.848 3293.896 C 2698.848 3295.896 2977.848 3177.896 3038.848 3159.896 L 3051.848 3200.896 C 3010.848 3218.896 2974.848 3231.896 2931.848 3245.896 C 2987.848 3465.896 3052.848 3551.896 3203.848 3685.896 L 3172.848 3708.896 C 3145.848 3692.896 3099.848 3641.896 3074.848 3617.896 C 2753.848 3769.896 2633.848 3921.896 2556.848 4078.896 C 2471.848 4267.896 2487.848 4482.896 2523.848 4681.896 C 2530.848 4714.896 2494.848 4730.896 2467.848 4720.896 C 2393.848 4703.896 2352.848 4629.896 2281.848 4602.896 C 2249.848 4588.896 2207.848 4572.896 2172.848 4578.896 C 2115.848 4588.896 2054.848 4876.896 2112.848 4904.896 C 2220.848 4957.896 2338.848 4968.896 2458.848 5030.896 C 2537.848 5062.896 2613.848 5114.896 2703.848 5100.896 C 2754.848 5095.896 2805.848 5060.896 2810.848 5006.896 C 2855.848 4812.896 2918.848 4606.896 3066.848 4466.896 C 3137.848 4396.896 3229.848 4340.896 3320.848 4297.896 C 3284.848 4159.896 3257.848 4021.896 3260.848 3877.896 L 3304.848 3875.896 C 3336.848 4423.896 3482.848 4538.896 3739.848 4793.896 C 3765.848 4819.896 3763.848 4868.896 3725.848 4883.896 C 3675.848 4908.896 3616.848 4909.896 3559.848 4912.896 C 3498.848 4915.896 3544.848 5253.896 3634.848 5250.896 C 3792.848 5245.896 3956.848 5122.896 4051.848 5001.896 C 4091.848 4951.896 4139.848 4901.896 4177.848 4852.896 C 4224.848 4791.896 4173.848 4720.896 4159.848 4664.896 C 4120.848 4504.896 4102.848 4044.896 4100.848 3980.896 L 4156.848 3981.896 L 4164.848 3865.896 C 3997.848 3658.896 4024.848 3334.896 3955.848 3125.896 C 3928.848 3040.896 3898.848 2952.896 3898.848 2862.896 C 3898.848 2740.896 4036.848 2511.896 4033.848 2307.896 C 4032.848 2221.896 3984.848 2109.896 3985.848 2058.896 C 3986.848 1910.896 4071.848 1942.896 4069.848 1634.896 C 4068.848 1549.896 4058.848 1486.896 4036.848 1399.896 C 4185.848 1242.896 3980.848 1085.896 3862.848 1183.896 C 3767.848 1158.896 3755.848 1133.896 3569.848 1133.896 C 3410.848 1133.896 3319.848 1176.896 3220.848 1242.896 M 2932.848 2160.896 C 2640.848 2074.896 2433.848 2035.896 2317.848 1947.896 C 2200.848 1858.896 2252.848 1662.896 2111.848 1558.896 C 2041.848 1506.896 1820.848 1629.896 1854.848 1682.896 C 2071.848 2020.896 1781.848 2101.896 2772.848 2667.896 C 2768.848 2354.896 2827.848 2289.896 2932.848 2160.896"/>
  <path d="M 3568.848 1433.896 C 3450.848 1246.896 3355.848 1227.896 3320.848 1362.896 C 3306.848 1417.896 3354.848 1416.896 3365.848 1375.896 C 3378.848 1329.896 3400.848 1281.896 3487.848 1414.896 C 3495.848 1425.896 3522.848 1433.896 3537.848 1433.896 M 3860.848 1335.896 C 3888.848 1307.896 3921.848 1283.896 3960.848 1266.896 C 4007.848 1250.896 3983.848 1202.896 3924.848 1222.896 C 3884.848 1235.896 3847.848 1266.896 3823.848 1298.896 M 3047.848 1471.896 C 3038.848 1502.896 3049.848 1537.896 3076.848 1556.896 C 3081.848 1534.896 3097.848 1514.896 3114.848 1500.896 C 3083.848 1491.896 3062.848 1480.896 3047.848 1471.896 M 3207.848 1524.896 C 3187.848 1518.896 3166.848 1514.896 3146.848 1509.896 C 3142.848 1524.896 3142.848 1540.896 3145.848 1549.896 C 3153.848 1571.896 3190.848 1572.896 3200.848 1556.896 C 3204.848 1550.896 3207.848 1537.896 3207.848 1524.896 M 3219.848 1527.896 C 3216.848 1539.896 3214.848 1553.896 3219.848 1563.896 C 3229.848 1582.896 3247.848 1583.896 3263.848 1583.896 C 3281.848 1583.896 3290.848 1571.896 3295.848 1559.896 C 3272.848 1544.896 3246.848 1535.896 3219.848 1527.896 M 3165.848 1787.896 L 3165.848 1780.896 C 3151.848 1763.896 3139.848 1744.896 3128.848 1724.896 C 3106.848 1740.896 3103.848 1764.896 3106.848 1792.896 M 3246.848 1780.896 L 3246.848 1755.896 C 3245.848 1724.896 3175.848 1722.896 3175.848 1755.896 L 3175.848 1787.396 M 3336.848 1772.896 L 3336.848 1750.896 C 3336.848 1720.896 3255.848 1718.896 3255.848 1751.896 L 3255.848 1779.896" fill="white"/>
  <path style="fill: rgb(216, 216, 216); stroke: rgb(0, 0, 0);" d="M 3274.213 1116.193 L 3274.213 1116.193 L 3274.213 1116.193 Z"/>
  <path style="stroke: rgb(0, 0, 0); stroke-linecap: round; stroke-linejoin: round; stroke-width: 37px; fill: rgb(255, 205, 53); stroke-opacity: 0;" d="M 3242.936 990.872 C 3282.396 951.939 3473.87 998.152 3473.87 998.152 C 3473.87 998.152 3648.068 783.688 3782.82 758.04 C 3912.136 733.427 4058.118 770.406 4156.981 857.32 C 4238.103 928.637 4259.102 1035.231 4261.414 1143.22 C 4263.436 1237.696 4209.499 1327.699 4193.081 1420.759 C 4185.969 1461.07 4201.466 1542.298 4201.466 1542.298 C 4201.466 1542.298 3534.821 1216.508 3275.374 1071.203 C 3255.646 1060.154 3226.84 1006.753 3242.936 990.872 Z" transform="matrix(0.999868, -0.016273, 0.016273, 0.999868, -18.159361, 61.173111)"/>
  <path style="stroke: rgb(0, 0, 0); stroke-linecap: round; stroke-linejoin: round; fill: rgba(255, 255, 255, 0); stroke-width: 30px;" d="M 3289.485 981.897 C 3328.945 942.964 3455.693 976.368 3455.693 976.368 C 3455.693 976.368 3659.45 768.016 3794.202 742.368 C 3923.517 717.755 4064.89 747.982 4163.753 834.896 C 4244.875 906.213 4289.8 1027.494 4292.112 1135.483 C 4294.134 1229.959 4220.88 1312.026 4204.462 1405.086 C 4197.35 1445.397 4200.174 1527.811 4200.174 1527.811 C 4200.174 1527.811 3567.295 1207.781 3307.848 1062.476 C 3288.12 1051.427 3273.389 997.778 3289.485 981.897 Z"/>
  <path style="fill: rgba(211, 211, 211, 0); stroke-width: 26px; stroke: rgb(255, 255, 255); stroke-linecap: round;" d="M 4135.876 1364.427 C 4135.876 1364.427 4012.929 1256.036 3745.131 1112.165 C 3690.737 1082.942 3540.029 1034.896 3540.029 1034.896"/>
  <path style="fill: rgb(216, 216, 216); stroke: rgb(0, 0, 0);" d="M 3732.968 1138.154"/>
  <path style="fill: rgba(211, 211, 211, 0); stroke-width: 26px; stroke: rgb(255, 255, 255); stroke-linecap: round;" d="M 4165.377 1258.29 C 4165.377 1258.29 4244.149 1073.137 4135.876 934.896 C 4069.555 850.218 3958.008 818.115 3877.275 818.115 C 3777.275 818.115 3633.848 908.698 3633.848 908.698"/>
</svg>