<?xml version="1.0" encoding="UTF-8" standalone="no"?>
<!-- Created with Inkscape (http://www.inkscape.org/) -->
<svg
   xmlns:svg="http://www.w3.org/2000/svg"
   xmlns="http://www.w3.org/2000/svg"
   version="1.0"
   width="31cm"
   height="21cm"
   viewBox="1 2 31 21"
   id="svg2275">
  <defs
     id="defs2350" />
  <rect
     width="8.625"
     height="2.2249999"
     x="1.3711606"
     y="2.4243686"
     style="fill:#ffffff"
     id="rect2277" />
  <rect
     width="8.625"
     height="2.2249999"
     x="1.3711606"
     y="2.4243686"
     style="fill:none;fill-opacity:0;stroke:#000000;stroke-width:0.1"
     id="rect2279" />
  <text
     x="5.6933012"
     y="3.7942712"
     style="font-size:0.72524053px;font-style:normal;font-weight:normal;text-anchor:middle;fill:#000000;font-family:sans"
     id="text2281">Kühlschrank-Kontrolle</text>
  <polygon
     points="5.89663,8.325 9.5772,11.5313 5.89663,14.7375 2.21607,11.5313 5.89663,8.325 "
     transform="translate(-0.1539394,-0.5131313)"
     style="fill:#ffffff"
     id="polygon2283" />
  <polygon
     points="5.89663,8.325 9.5772,11.5313 5.89663,14.7375 2.21607,11.5313 5.89663,8.325 "
     transform="translate(-0.1539394,-0.5131313)"
     style="fill:none;fill-opacity:0;stroke:#000000;stroke-width:0.1"
     id="polygon2285" />
  <path
     d="M 5.0026649,10.58148 L 5.0026649,10.758751 C 4.9913365,10.73922 4.9768322,10.724911 4.9594496,10.715536 C 4.942262,10.705966 4.9219318,10.701425 4.8977135,10.701425 C 4.8580649,10.701425 4.8256997,10.717409 4.8006996,10.74905 C 4.7758948,10.78069 4.7636579,10.821841 4.7636579,10.873404 C 4.7636579,10.924966 4.7758951,10.966999 4.8006996,10.99864 C 4.8256994,11.03028 4.8580647,11.046265 4.8977135,11.046265 C 4.9219321,11.046265 4.942262,11.041529 4.9594496,11.032154 C 4.9768322,11.022583 4.9913362,11.007588 5.0026649,10.988057 L 5.0026649,11.037445 L 5.0564635,11.037445 L 5.0564635,10.58148 L 5.0026649,10.58148 z M 7.129033,10.58148 L 7.129033,10.650272 L 7.1828316,10.650272 L 7.1828316,10.58148 L 7.129033,10.58148 z M 2.8286718,10.600001 L 2.8286718,11.037445 L 2.8859982,11.037445 L 2.8859982,10.671438 L 3.0800259,11.037445 L 3.1594009,11.037445 L 3.1594009,10.600001 L 3.1020746,10.600001 L 3.1020746,10.966008 L 2.9080468,10.600001 L 2.8286718,10.600001 z M 6.0407135,10.600001 L 6.0407135,11.037445 L 6.1976996,11.037445 C 6.2467228,11.037445 6.2849077,11.026984 6.3114705,11.005695 C 6.3380327,10.984407 6.3511577,10.953918 6.351158,10.914855 C 6.3511577,10.885168 6.3426741,10.860499 6.3264635,10.840772 C 6.3104477,10.82085 6.2876551,10.808216 6.2585538,10.801966 C 6.2827721,10.79806 6.3016158,10.787801 6.3141163,10.77198 C 6.3266159,10.75616 6.3326366,10.735238 6.3326371,10.70848 C 6.3326369,10.67391 6.3208913,10.646973 6.2964774,10.628223 C 6.2720629,10.609474 6.2366429,10.600001 6.191526,10.600001 L 6.0407135,10.600001 z M 7.2948386,10.615876 L 7.2948386,10.709362 L 7.2551511,10.709362 L 7.2551511,10.751695 L 7.2948386,10.751695 L 7.2948386,10.928966 C 7.2948386,10.969982 7.3028305,10.99889 7.3186511,11.014515 C 7.3344713,11.029945 7.3634801,11.037445 7.4050816,11.037445 L 7.4597622,11.037445 L 7.4597622,10.992466 L 7.4050816,10.992466 C 7.3826204,10.992466 7.3675243,10.988618 7.3601024,10.981001 C 7.3528759,10.973384 7.3486372,10.955724 7.3486372,10.928966 L 7.3486372,10.751695 L 7.4597622,10.751695 L 7.4597622,10.709362 L 7.3486372,10.709362 L 7.3486372,10.615876 L 7.2948386,10.615876 z M 6.0998038,10.648508 L 6.1871163,10.648508 C 6.2160224,10.648508 6.2374354,10.654327 6.2514982,10.665265 C 6.2657558,10.676203 6.2735466,10.692584 6.2735469,10.714654 C 6.2735466,10.73692 6.2657556,10.753105 6.2514982,10.764043 C 6.2374354,10.774785 6.2160226,10.7808 6.1871163,10.7808 L 6.0998038,10.7808 L 6.0998038,10.648508 z M 3.3904704,10.701425 C 3.3728921,10.701425 3.3543445,10.703693 3.3357898,10.707598 C 3.3172351,10.711309 3.2981899,10.716739 3.2784634,10.724355 L 3.2784634,10.773744 C 3.2948696,10.76476 3.3118427,10.758834 3.3296162,10.754341 C 3.3473895,10.749849 3.3655466,10.747286 3.3842968,10.747286 C 3.4137888,10.747286 3.4368774,10.753898 3.4530884,10.76757 C 3.4694945,10.781047 3.4777827,10.800092 3.4777829,10.824897 L 3.4777829,10.830189 L 3.4019357,10.830189 C 3.3529121,10.830189 3.3164971,10.83966 3.2916926,10.858411 C 3.2670832,10.877161 3.2546509,10.905282 3.2546509,10.942195 C 3.2546509,10.973836 3.2640285,10.999098 3.2837551,11.018043 C 3.3036769,11.036793 3.3304183,11.046265 3.3640121,11.046265 C 3.3905744,11.046265 3.4135623,11.041529 3.4319218,11.032154 C 3.4502809,11.022583 3.465478,11.007978 3.4777829,10.988057 L 3.4777829,11.037445 L 3.5315815,11.037445 L 3.5315815,10.850473 C 3.5315812,10.800473 3.519741,10.763076 3.4963037,10.738466 C 3.472866,10.713857 3.4379311,10.701425 3.3904704,10.701425 z M 3.8014565,10.701425 C 3.7778235,10.701425 3.7577897,10.705966 3.7406023,10.715536 C 3.7234147,10.725106 3.7088097,10.740398 3.6965051,10.760515 L 3.6965051,10.709362 L 3.6418246,10.709362 L 3.6418246,11.037445 L 3.6965051,11.037445 L 3.6965051,10.852237 C 3.6965051,10.820401 3.7041065,10.794945 3.7203176,10.77639 C 3.7365285,10.75764 3.7589242,10.748168 3.7864635,10.748168 C 3.8097053,10.748168 3.8264831,10.755864 3.8376162,10.771098 C 3.8487488,10.786138 3.8543729,10.809132 3.8543732,10.840772 L 3.8543732,11.037445 L 3.9090537,11.037445 L 3.9090537,10.852237 C 3.9090535,10.820206 3.9166548,10.794945 3.9328662,10.77639 C 3.9490768,10.757835 3.971082,10.748168 3.9990121,10.748168 C 4.0218633,10.748168 4.0390315,10.755864 4.0501649,10.771098 C 4.0612971,10.786333 4.0669212,10.809327 4.0669218,10.840772 L 4.0669218,11.037445 L 4.1207204,11.037445 L 4.1207204,10.83989 C 4.1207198,10.795749 4.1119343,10.761413 4.0933801,10.737584 C 4.0748249,10.713561 4.0481845,10.701425 4.0140051,10.701425 C 3.9886142,10.701425 3.966609,10.707541 3.9478593,10.719063 C 3.929109,10.730587 3.9128287,10.747762 3.8993524,10.77198 C 3.8913443,10.748934 3.8791074,10.732055 3.8623107,10.719945 C 3.845709,10.707836 3.8252843,10.701425 3.8014565,10.701425 z M 4.365019,10.701425 C 4.3158,10.701425 4.2768218,10.717409 4.2477204,10.74905 C 4.2188141,10.780495 4.2045051,10.823221 4.2045051,10.876932 C 4.2045051,10.928885 4.2198975,10.969935 4.2503662,11.000404 C 4.2810303,11.030872 4.3223764,11.046265 4.3747204,11.046265 C 4.3956187,11.046265 4.4161439,11.043506 4.4364565,11.039209 C 4.4567686,11.034913 4.4762104,11.028891 4.4955468,11.020689 L 4.4955468,10.969536 C 4.4764059,10.979692 4.4577513,10.987388 4.4382204,10.992466 C 4.4188842,10.997544 4.3980692,11.000404 4.3773663,11.000404 C 4.3416239,11.000404 4.3136986,10.990636 4.2935815,10.9713 C 4.2736595,10.951768 4.2632932,10.923743 4.2609496,10.886633 L 4.508776,10.886633 L 4.508776,10.860175 C 4.5087757,10.811347 4.4957511,10.772961 4.4699704,10.74464 C 4.4443842,10.716125 4.4091594,10.701425 4.365019,10.701425 z M 5.3051718,10.701425 C 5.2559528,10.701425 5.2169748,10.717409 5.1878732,10.74905 C 5.1589669,10.780495 5.1437757,10.823221 5.143776,10.876932 C 5.143776,10.928885 5.1591681,10.969935 5.1896371,11.000404 C 5.2203011,11.030872 5.2616472,11.046265 5.3139913,11.046265 C 5.3348896,11.046265 5.3562967,11.043506 5.3766093,11.039209 C 5.3969214,11.034913 5.4163634,11.028891 5.4356996,11.020689 L 5.4356996,10.969536 C 5.4165587,10.979692 5.3970222,10.987388 5.3774913,10.992466 C 5.3581551,10.997544 5.338222,11.000404 5.3175191,11.000404 C 5.2817767,11.000404 5.2538514,10.990636 5.2337343,10.9713 C 5.2138123,10.951768 5.2025643,10.923743 5.2002204,10.886633 L 5.4480468,10.886633 L 5.4480468,10.860175 C 5.4480466,10.811347 5.4350223,10.772961 5.4092413,10.74464 C 5.383655,10.716125 5.349312,10.701425 5.3051718,10.701425 z M 5.6394288,10.701425 C 5.5991943,10.701425 5.5686994,10.710204 5.5468246,10.727001 C 5.5249496,10.743798 5.5141927,10.767579 5.5141927,10.798439 C 5.5141927,10.823829 5.5213975,10.843763 5.5362413,10.858411 C 5.551085,10.872864 5.5751623,10.883129 5.6085607,10.890161 L 5.6270816,10.89457 C 5.6604797,10.901797 5.6825794,10.909689 5.6923455,10.917501 C 5.7023062,10.925313 5.7073382,10.936367 5.7073385,10.951015 C 5.7073382,10.966835 5.6998435,10.979268 5.6861718,10.988057 C 5.6724999,10.99665 5.6533539,11.001286 5.6279635,11.001286 C 5.6090179,11.001286 5.589973,10.998426 5.5706371,10.993348 C 5.5513012,10.988075 5.5314686,10.979888 5.5115468,10.969536 L 5.5115468,11.025098 C 5.5326404,11.031934 5.5525738,11.037653 5.5715191,11.040973 C 5.5906597,11.044489 5.6095031,11.046265 5.6270816,11.046265 C 5.669269,11.046265 5.7018357,11.036698 5.7258593,11.018925 C 5.750078,11.001151 5.7620191,10.977074 5.7620191,10.946605 C 5.7620188,10.919847 5.7544174,10.899713 5.7382066,10.884869 C 5.7221907,10.86983 5.6944666,10.857794 5.6561857,10.849591 L 5.6376649,10.845182 C 5.6087586,10.838736 5.5899087,10.83281 5.5803385,10.825779 C 5.5707681,10.818552 5.5662274,10.808293 5.5662274,10.795793 C 5.5662274,10.779387 5.5723488,10.766954 5.5856302,10.758751 C 5.5991066,10.750548 5.6197263,10.746404 5.6464843,10.746404 C 5.6640623,10.746404 5.681231,10.748672 5.6976371,10.752577 C 5.7140433,10.756484 5.7291458,10.762404 5.7443802,10.770216 L 5.7443802,10.719063 C 5.7295361,10.713205 5.7134512,10.708765 5.6958732,10.705834 C 5.678295,10.702905 5.6593503,10.701425 5.6394288,10.701425 z M 6.5866371,10.701425 C 6.5374182,10.701425 6.4984399,10.717409 6.4693385,10.74905 C 6.4404322,10.780495 6.4261233,10.823221 6.4261233,10.876932 C 6.4261233,10.928885 6.4415157,10.969935 6.4719844,11.000404 C 6.5026484,11.030872 6.5439945,11.046265 6.5963385,11.046265 C 6.6172368,11.046265 6.637762,11.043506 6.6580746,11.039209 C 6.6783867,11.034913 6.6987107,11.028891 6.7180469,11.020689 L 6.7180469,10.969536 C 6.698906,10.979692 6.6793694,10.987388 6.6598385,10.992466 C 6.6405024,10.997544 6.6205693,11.000404 6.5998663,11.000404 C 6.564124,11.000404 6.5361987,10.990636 6.5160816,10.9713 C 6.4961595,10.951768 6.4849116,10.923743 6.4825677,10.886633 L 6.7303941,10.886633 L 6.7303941,10.860175 C 6.7303938,10.811347 6.7173695,10.772961 6.6915885,10.74464 C 6.6660023,10.716125 6.6307776,10.701425 6.5866371,10.701425 z M 6.921776,10.701425 C 6.8815416,10.701425 6.8501647,10.710204 6.8282899,10.727001 C 6.8064149,10.743798 6.7956577,10.767579 6.795658,10.798439 C 6.795658,10.823829 6.8037451,10.843763 6.8185885,10.858411 C 6.8334323,10.872864 6.8575095,10.883129 6.890908,10.890161 L 6.9094288,10.89457 C 6.942827,10.901797 6.964045,10.909689 6.9738108,10.917501 C 6.9837715,10.925313 6.9888035,10.936367 6.9888038,10.951015 C 6.9888035,10.966835 6.9821908,10.979268 6.9685191,10.988057 C 6.9548471,10.99665 6.9357012,11.001286 6.9103108,11.001286 C 6.8913652,11.001286 6.8714383,10.998426 6.8521024,10.993348 C 6.8327665,10.988075 6.8138159,10.979888 6.7938941,10.969536 L 6.7938941,11.025098 C 6.8149877,11.031934 6.8349207,11.037653 6.8538663,11.040973 C 6.8730069,11.044489 6.8909687,11.046265 6.9085469,11.046265 C 6.9507343,11.046265 6.9841827,11.036698 7.0082066,11.018925 C 7.0324252,11.001151 7.0443658,10.977074 7.0443663,10.946605 C 7.044366,10.919847 7.0358824,10.899713 7.0196719,10.884869 C 7.0036561,10.86983 6.9768139,10.857794 6.938533,10.849591 L 6.9200122,10.845182 C 6.8911058,10.838736 6.8722559,10.83281 6.8626858,10.825779 C 6.8531153,10.818552 6.8476924,10.808293 6.8476927,10.795793 C 6.8476927,10.779387 6.8546961,10.766954 6.8679774,10.758751 C 6.8814538,10.750548 6.9011916,10.746404 6.9279497,10.746404 C 6.9455276,10.746404 6.9626957,10.748672 6.9791024,10.752577 C 6.9955086,10.756484 7.0114928,10.762404 7.0267274,10.770216 L 7.0267274,10.719063 C 7.0118834,10.713205 6.9957987,10.708765 6.9782205,10.705834 C 6.9606423,10.702905 6.9416978,10.701425 6.921776,10.701425 z M 7.9836372,10.701425 C 7.9344182,10.701425 7.8954399,10.717409 7.8663386,10.74905 C 7.8374322,10.780495 7.8231233,10.823221 7.8231233,10.876932 C 7.8231233,10.928885 7.8385157,10.969935 7.8689844,11.000404 C 7.8996484,11.030872 7.9409945,11.046265 7.9933386,11.046265 C 8.0142368,11.046265 8.034762,11.043506 8.0550747,11.039209 C 8.0753868,11.034913 8.0948288,11.028891 8.114165,11.020689 L 8.114165,10.969536 C 8.0950241,10.979692 8.0763695,10.987388 8.0568386,10.992466 C 8.0375024,10.997544 8.0175693,11.000404 7.9968664,11.000404 C 7.961124,11.000404 7.9331987,10.990636 7.9130816,10.9713 C 7.8931596,10.951768 7.8819116,10.923743 7.8795677,10.886633 L 8.1273941,10.886633 L 8.1273941,10.860175 C 8.1273939,10.811347 8.1143696,10.772961 8.0885886,10.74464 C 8.0630023,10.716125 8.0277776,10.701425 7.9836372,10.701425 z M 8.3769844,10.701425 C 8.3510076,10.701425 8.329003,10.706652 8.3108386,10.716418 C 8.2926745,10.725988 8.2780692,10.740593 8.2667414,10.760515 L 8.2667414,10.709362 L 8.2120608,10.709362 L 8.2120608,11.037445 L 8.2667414,11.037445 L 8.2667414,10.864584 C 8.2667414,10.827475 8.2743427,10.798762 8.2905539,10.779036 C 8.30696,10.759114 8.3306401,10.749932 8.3611094,10.749932 C 8.3697031,10.749932 8.3778906,10.75082 8.3849219,10.752577 C 8.3921482,10.75414 8.3982696,10.756118 8.4043247,10.759633 L 8.4043247,10.70407 C 8.3988558,10.703094 8.3938232,10.702697 8.3893316,10.702307 C 8.3848392,10.701721 8.3806951,10.701425 8.3769844,10.701425 z M 8.5648386,10.701425 C 8.5246041,10.701425 8.4932272,10.710204 8.4713525,10.727001 C 8.4494774,10.743798 8.4387208,10.767579 8.4387205,10.798439 C 8.4387205,10.823829 8.4459257,10.843763 8.4607691,10.858411 C 8.4756129,10.872864 8.4996901,10.883129 8.5330886,10.890161 L 8.5524914,10.89457 C 8.5858895,10.901797 8.6071076,10.909689 8.6168733,10.917501 C 8.6268341,10.925313 8.6318661,10.936367 8.6318664,10.951015 C 8.6318661,10.966835 8.6252533,10.979268 8.6115816,10.988057 C 8.5979097,10.99665 8.5778815,11.001286 8.5524914,11.001286 C 8.5335458,11.001286 8.5145006,10.998426 8.495165,10.993348 C 8.4758291,10.988075 8.4568784,10.979888 8.4369566,10.969536 L 8.4369566,11.025098 C 8.4580502,11.031934 8.4779839,11.037653 8.4969289,11.040973 C 8.5160695,11.044489 8.5340312,11.046265 8.5516094,11.046265 C 8.5937968,11.046265 8.6272458,11.036698 8.6512691,11.018925 C 8.6754878,11.001151 8.6874283,10.977074 8.6874289,10.946605 C 8.6874286,10.919847 8.678945,10.899713 8.6627344,10.884869 C 8.6467186,10.86983 8.6198764,10.857794 8.5815955,10.849591 L 8.5630747,10.845182 C 8.5341684,10.838736 8.5153185,10.83281 8.5057483,10.825779 C 8.4961779,10.818552 8.4907555,10.808293 8.4907553,10.795793 C 8.4907553,10.779387 8.4977586,10.766954 8.51104,10.758751 C 8.5245164,10.750548 8.5442547,10.746404 8.5710122,10.746404 C 8.5885901,10.746404 8.6057583,10.748672 8.622165,10.752577 C 8.6385711,10.756484 8.6545556,10.762404 8.66979,10.770216 L 8.66979,10.719063 C 8.6549459,10.713205 8.6388612,10.708765 8.621283,10.705834 C 8.6037048,10.702905 8.5847604,10.701425 8.5648386,10.701425 z M 7.129033,10.709362 L 7.129033,11.037445 L 7.1828316,11.037445 L 7.1828316,10.709362 L 7.129033,10.709362 z M 7.5073872,10.709362 L 7.5073872,10.752577 L 7.7031788,10.752577 L 7.5003316,10.988057 L 7.5003316,11.037445 L 7.764033,11.037445 L 7.764033,10.99423 L 7.5611858,10.99423 L 7.764033,10.758751 L 7.764033,10.709362 L 7.5073872,10.709362 z M 4.9109427,10.746404 C 4.9394581,10.746404 4.961564,10.758143 4.9779704,10.7808 C 4.9943763,10.803261 5.0026643,10.833755 5.0026649,10.873404 C 5.0026646,10.913052 4.9943766,10.944234 4.9779704,10.96689 C 4.961564,10.989351 4.9394578,11.001286 4.9109427,11.001286 C 4.8824269,11.001286 4.8594391,10.989351 4.8430329,10.96689 C 4.8268218,10.944234 4.8192204,10.913052 4.8192204,10.873404 C 4.8192204,10.833756 4.8268221,10.803261 4.8430329,10.7808 C 4.8594391,10.758144 4.8824266,10.746404 4.9109427,10.746404 z M 4.365901,10.747286 C 4.3924632,10.747286 4.4133851,10.756166 4.429401,10.773744 C 4.4456115,10.791323 4.4537045,10.814807 4.4540954,10.8443 L 4.2627135,10.8443 C 4.2654476,10.813441 4.2756127,10.789855 4.2935815,10.772862 C 4.3117454,10.75587 4.3358226,10.747286 4.365901,10.747286 z M 5.3051718,10.747286 C 5.331734,10.747286 5.353538,10.756166 5.3695538,10.773744 C 5.3857643,10.791323 5.3938571,10.814807 5.3942482,10.8443 L 5.2019843,10.8443 C 5.2047185,10.813441 5.2148836,10.789855 5.2328524,10.772862 C 5.2510162,10.75587 5.2750937,10.747286 5.3051718,10.747286 z M 6.5875191,10.747286 C 6.6140813,10.747286 6.6358852,10.756166 6.651901,10.773744 C 6.6681116,10.791323 6.6762046,10.814807 6.6765955,10.8443 L 6.4843316,10.8443 C 6.4870658,10.813441 6.4972306,10.789855 6.5151996,10.772862 C 6.5333635,10.75587 6.5574407,10.747286 6.5875191,10.747286 z M 7.9845191,10.747286 C 8.0110813,10.747286 8.0320033,10.756166 8.0480191,10.773744 C 8.0642297,10.791323 8.0732046,10.814807 8.0735955,10.8443 L 7.8813316,10.8443 C 7.8840658,10.813441 7.8942306,10.789855 7.9121997,10.772862 C 7.9303635,10.75587 7.9544407,10.747286 7.9845191,10.747286 z M 6.0998038,10.828425 L 6.1950538,10.828425 C 6.2268896,10.828425 6.2503747,10.834742 6.2656094,10.847827 C 6.2810387,10.860718 6.2885396,10.881338 6.2885399,10.908682 C 6.2885396,10.93583 6.2810387,10.956255 6.2656094,10.969536 C 6.2503747,10.982622 6.2268896,10.988938 6.1950538,10.988939 L 6.0998038,10.988939 L 6.0998038,10.828425 z M 3.4239843,10.872522 L 3.4777829,10.872522 L 3.4777829,10.884869 C 3.4777826,10.920025 3.4686064,10.948247 3.4504426,10.969536 C 3.4324736,10.99063 3.4088878,11.001286 3.3790051,11.001286 C 3.3573253,11.001286 3.3396657,10.995662 3.3269704,10.984529 C 3.3144703,10.973201 3.3084495,10.957808 3.3084496,10.938668 C 3.3084495,10.914644 3.317229,10.897476 3.3340259,10.887515 C 3.3508227,10.877554 3.3804294,10.872522 3.4239843,10.872522 z M 6.1500746,11.181202 L 6.1500746,11.359355 C 6.1387462,11.339824 6.1242417,11.325515 6.1068594,11.31614 C 6.0896717,11.30657 6.0693419,11.301147 6.0451232,11.301147 C 6.0054747,11.301147 5.9731092,11.317131 5.9481094,11.348772 C 5.9233046,11.380413 5.9101855,11.422445 5.9101857,11.474008 C 5.9101857,11.525571 5.9233046,11.566721 5.9481094,11.598362 C 5.9731092,11.630003 6.0054747,11.645987 6.0451232,11.645987 C 6.0693419,11.645987 6.0896715,11.641251 6.1068594,11.631876 C 6.124242,11.622306 6.1387462,11.608192 6.1500746,11.588661 L 6.1500746,11.637168 L 6.2038732,11.637168 L 6.2038732,11.181202 L 6.1500746,11.181202 z M 7.1643108,11.191786 C 7.1441934,11.191786 7.1250477,11.195137 7.1061024,11.200605 C 7.0873524,11.206074 7.0688993,11.214167 7.0505399,11.2253 L 7.0505399,11.27998 C 7.0694852,11.266895 7.0869556,11.257712 7.1043386,11.250876 C 7.1219165,11.244041 7.1391794,11.240293 7.1546094,11.240293 C 7.175703,11.240293 7.192185,11.245426 7.2048802,11.256168 C 7.2177707,11.26691 7.224283,11.281118 7.224283,11.298501 C 7.2242827,11.308072 7.2214235,11.317544 7.2163455,11.326723 C 7.2114625,11.335903 7.2036658,11.345477 7.192533,11.355827 L 7.1660747,11.382286 C 7.1484965,11.399083 7.1371474,11.413688 7.1316788,11.426383 C 7.1262099,11.439078 7.123741,11.455164 7.1237413,11.47489 L 7.1237413,11.519869 L 7.1793038,11.519869 L 7.1793038,11.483709 C 7.1793035,11.473553 7.1795996,11.465757 7.1801858,11.459897 C 7.1807717,11.454038 7.1816595,11.449006 7.1828316,11.444904 C 7.184394,11.440021 7.1870582,11.434989 7.1907691,11.429911 C 7.1946751,11.424637 7.2009923,11.417924 7.2101719,11.408744 L 7.2366302,11.383168 C 7.2542081,11.366371 7.2657584,11.35147 7.2727899,11.338189 C 7.2798209,11.324712 7.283373,11.310699 7.2833733,11.295855 C 7.283373,11.264801 7.2726161,11.239835 7.2507413,11.22089 C 7.2290613,11.201945 7.2002481,11.191787 7.1643108,11.191786 z M 4.698394,11.301147 C 4.6513236,11.301147 4.6140268,11.316539 4.587269,11.347008 C 4.5607066,11.377477 4.5475815,11.420102 4.5475815,11.474008 C 4.5475815,11.527719 4.5607066,11.569462 4.587269,11.600126 C 4.6140268,11.630595 4.6513236,11.645987 4.698394,11.645987 C 4.7452689,11.645987 4.781879,11.630595 4.8086371,11.600126 C 4.8353946,11.569462 4.8492063,11.527719 4.8492065,11.474008 C 4.8492063,11.420102 4.8353946,11.377477 4.8086371,11.347008 C 4.781879,11.31654 4.7452689,11.301147 4.698394,11.301147 z M 5.1005607,11.301147 C 5.0745839,11.301147 5.0525787,11.306375 5.0344149,11.31614 C 5.0162508,11.325711 5.0016458,11.340315 4.9903177,11.360237 L 4.9903177,11.309084 L 4.9356371,11.309084 L 4.9356371,11.637168 L 4.9903177,11.637168 L 4.9903177,11.464307 C 4.9903177,11.427197 4.997919,11.399367 5.0141302,11.37964 C 5.0305363,11.359718 5.0542167,11.349654 5.0846857,11.349654 C 5.0932794,11.349654 5.1014667,11.350543 5.1084982,11.3523 C 5.1157245,11.353862 5.1218462,11.35584 5.127901,11.359355 L 5.127901,11.304675 C 5.1224321,11.303698 5.1173998,11.302419 5.1129079,11.302029 C 5.1084155,11.301443 5.1042714,11.301147 5.1005607,11.301147 z M 5.2989982,11.301147 C 5.28142,11.301147 5.263754,11.303415 5.2451996,11.30732 C 5.2266449,11.311032 5.2075997,11.316461 5.1878732,11.324077 L 5.1878732,11.374348 C 5.2042794,11.365364 5.2212525,11.358556 5.239026,11.354064 C 5.2567992,11.349572 5.2749566,11.347008 5.2937066,11.347008 C 5.3231985,11.347008 5.3462871,11.353621 5.3624982,11.367293 C 5.3789041,11.38077 5.3863107,11.400696 5.3863107,11.425501 L 5.3863107,11.430793 L 5.3113454,11.430793 C 5.2623218,11.430793 5.225025,11.439383 5.2002204,11.458133 C 5.1756109,11.476883 5.1631788,11.505004 5.1631788,11.541918 C 5.1631788,11.573558 5.1734384,11.59882 5.1931649,11.617765 C 5.2130867,11.636515 5.2398278,11.645987 5.2734218,11.645987 C 5.299984,11.645987 5.3220899,11.641251 5.3404496,11.631876 C 5.3588087,11.622306 5.3740058,11.607701 5.3863107,11.587779 L 5.3863107,11.637168 L 5.4409913,11.637168 L 5.4409913,11.450195 C 5.440991,11.400196 5.4291506,11.362798 5.4057135,11.338189 C 5.3822758,11.31358 5.346459,11.301147 5.2989982,11.301147 z M 5.7117482,11.301147 C 5.6888964,11.301147 5.6684723,11.306375 5.6508941,11.31614 C 5.6335112,11.325906 5.6179237,11.340511 5.605033,11.360237 L 5.605033,11.309084 L 5.5512343,11.309084 L 5.5512343,11.637168 L 5.605033,11.637168 L 5.605033,11.451959 C 5.605033,11.419928 5.613812,11.394667 5.6306093,11.376112 C 5.6474061,11.357558 5.6702991,11.348772 5.699401,11.348772 C 5.7236196,11.348772 5.741972,11.356273 5.7540816,11.371702 C 5.7661906,11.387132 5.7717202,11.410322 5.7717205,11.441376 L 5.7717205,11.637168 L 5.8255191,11.637168 L 5.8255191,11.439612 C 5.8255188,11.3943 5.8166327,11.359667 5.7972968,11.336425 C 5.7779607,11.312987 5.749443,11.301147 5.7117482,11.301147 z M 6.4525816,11.301147 C 6.4033626,11.301147 6.3635024,11.317131 6.334401,11.348772 C 6.3054947,11.380217 6.2911858,11.422943 6.2911858,11.476654 C 6.2911858,11.528607 6.3065782,11.569657 6.3370469,11.600126 C 6.3677109,11.630595 6.4090573,11.645987 6.461401,11.645987 C 6.4822993,11.645987 6.5028242,11.64411 6.5231371,11.639814 C 6.5434492,11.635517 6.5637729,11.628614 6.5831094,11.620411 L 6.5831094,11.57014 C 6.5639685,11.580296 6.5444322,11.587992 6.524901,11.59307 C 6.5055649,11.598148 6.4856315,11.600126 6.4649288,11.600126 C 6.4291865,11.600126 6.4012609,11.590358 6.3811441,11.571022 C 6.361222,11.551491 6.3499738,11.523464 6.3476302,11.486355 L 6.5954566,11.486355 L 6.5954566,11.459897 C 6.5954563,11.411069 6.5824318,11.372683 6.556651,11.344362 C 6.5310648,11.315847 6.496722,11.301147 6.4525816,11.301147 z M 6.8406372,11.301147 C 6.8177853,11.301147 6.7982426,11.306375 6.7806649,11.31614 C 6.763282,11.325906 6.7476943,11.340511 6.7348038,11.360237 L 6.7348038,11.309084 L 6.6810052,11.309084 L 6.6810052,11.637168 L 6.7348038,11.637168 L 6.7348038,11.451959 C 6.7348038,11.419928 6.7435832,11.394667 6.7603802,11.376112 C 6.7771769,11.357558 6.80007,11.348772 6.8291719,11.348772 C 6.8533905,11.348772 6.8717431,11.356273 6.8838524,11.371702 C 6.8959615,11.387132 6.901491,11.410322 6.9014913,11.441376 L 6.9014913,11.637168 L 6.9552899,11.637168 L 6.9552899,11.439612 C 6.9552897,11.3943 6.9455214,11.359667 6.9261858,11.336425 C 6.9068496,11.312987 6.8783322,11.301147 6.8406372,11.301147 z M 4.1771649,11.309084 L 4.3006371,11.637168 L 4.3738385,11.637168 L 4.4964288,11.309084 L 4.4399843,11.309084 L 4.3367968,11.585133 L 4.2344912,11.309084 L 4.1771649,11.309084 z M 4.698394,11.347008 C 4.7271048,11.347008 4.7495065,11.358553 4.7663038,11.381404 C 4.7831005,11.40406 4.7918799,11.435141 4.7918802,11.474008 C 4.7918799,11.513071 4.7831002,11.543956 4.7663038,11.566612 C 4.7495067,11.589268 4.7271048,11.600126 4.698394,11.600126 C 4.6692924,11.600126 4.6463991,11.589073 4.6296024,11.566612 C 4.6130006,11.543956 4.6049079,11.513266 4.6049079,11.474008 C 4.6049079,11.43475 4.6128054,11.403865 4.6296024,11.381404 C 4.6463991,11.358748 4.6694877,11.347008 4.698394,11.347008 z M 6.0583524,11.347008 C 6.0868679,11.347008 6.1089735,11.357866 6.1253802,11.380522 C 6.1417861,11.402983 6.1500744,11.434359 6.1500746,11.474008 C 6.1500744,11.513657 6.1417861,11.544838 6.1253802,11.567494 C 6.1089738,11.589955 6.0868679,11.601008 6.0583524,11.601008 C 6.0298367,11.601008 6.0068485,11.589955 5.9904427,11.567494 C 5.9742316,11.544838 5.9666302,11.513656 5.9666302,11.474008 C 5.9666302,11.43436 5.9742316,11.402983 5.9904427,11.380522 C 6.0068488,11.357866 6.0298367,11.347009 6.0583524,11.347008 z M 6.4525816,11.347008 C 6.4791438,11.347008 6.5009474,11.355888 6.5169635,11.373466 C 6.5331741,11.391045 6.5412671,11.41453 6.541658,11.444022 L 6.3493941,11.444022 C 6.3521283,11.413163 6.3622933,11.389577 6.3802621,11.372584 C 6.398426,11.355592 6.4225032,11.347008 6.4525816,11.347008 z M 5.3333941,11.472244 L 5.3863107,11.472244 L 5.3863107,11.484591 C 5.3863104,11.519748 5.3780162,11.547969 5.3598524,11.569258 C 5.3418833,11.590352 5.3174155,11.601008 5.2875329,11.601008 C 5.2658532,11.601008 5.2490751,11.595384 5.2363802,11.584251 C 5.22388,11.572923 5.2169774,11.55753 5.2169774,11.53839 C 5.2169774,11.514367 5.225757,11.497198 5.2425538,11.487237 C 5.2593505,11.477276 5.289839,11.472244 5.3333941,11.472244 z M 7.1219774,11.563084 L 7.1219774,11.637168 L 7.1810677,11.637168 L 7.1810677,11.563084 L 7.1219774,11.563084 z "
     style="font-size:0.60000002px;font-style:normal;font-weight:normal;text-anchor:middle;fill:#000000;font-family:sans"
     id="text2287" />
  <rect
     width="7.1817098"
     height="1.8692122"
     x="2.1461606"
     y="20.461868"
     style="fill:#ffffff"
     id="rect2291" />
  <rect
     width="7.3000002"
     height="1.9"
     x="2.1461606"
     y="20.461868"
     style="fill:none;fill-opacity:0;stroke:#000000;stroke-width:0.1"
     id="rect2293" />
  <text
     x="5.8249087"
     y="21.661522"
     style="font-size:0.64750451px;font-style:normal;font-weight:normal;text-anchor:middle;fill:#000000;font-family:sans"
     id="text2295">Ab in den Mülleimer!</text>
  <line
     style="fill:none;fill-opacity:0;stroke:#000000;stroke-width:0.1"
     x1="5.683661"
     y1="4.6493688"
     x2="5.7336106"
     y2="7.3251491"
     id="line2297" />
  <polygon
     points="5.89454,8.21322 5.63526,7.71797 5.88755,7.83828 6.13517,7.70864 5.89454,8.21322 "
     transform="translate(-0.1539394,-0.5131313)"
     style="fill:#000000"
     id="polygon2299" />
  <polygon
     points="5.89454,8.21322 5.63526,7.71797 5.88755,7.83828 6.13517,7.70864 5.89454,8.21322 "
     transform="translate(-0.1539394,-0.5131313)"
     style="fill:none;fill-opacity:0;stroke:#000000;stroke-width:0.1"
     id="polygon2301" />
  <line
     style="fill:none;fill-opacity:0;stroke:#000000;stroke-width:0.1"
     x1="5.7426906"
     y1="14.224369"
     x2="5.7919908"
     y2="19.975067"
     id="line2303" />
  <polygon
     points="5.94914,20.8632 5.69486,20.3654 5.94593,20.4882 6.19485,20.3611 5.94914,20.8632 "
     transform="translate(-0.1539394,-0.5131313)"
     style="fill:#000000"
     id="polygon2305" />
  <polygon
     points="5.94914,20.8632 5.69486,20.3654 5.94593,20.4882 6.19485,20.3611 5.94914,20.8632 "
     transform="translate(-0.1539394,-0.5131313)"
     style="fill:none;fill-opacity:0;stroke:#000000;stroke-width:0.1"
     id="polygon2307" />
  <polygon
     points="17.4674,7.9 21.3347,11.4429 17.4674,14.9858 13.6001,11.4429 17.4674,7.9 "
     transform="translate(-0.1539394,-0.5131313)"
     style="fill:#ffffff"
     id="polygon2309" />
  <polygon
     points="17.4674,7.9 21.3347,11.4429 17.4674,14.9858 13.6001,11.4429 17.4674,7.9 "
     transform="translate(-0.1539394,-0.5131313)"
     style="fill:none;fill-opacity:0;stroke:#000000;stroke-width:0.1"
     id="polygon2311" />
  <path
     d="M 15.120615,10.748006 L 14.934991,10.261805 L 15.003705,10.261805 L 15.15774,10.671151 L 15.312099,10.261805 L 15.380487,10.261805 L 15.19519,10.748006 L 15.120615,10.748006 M 15.708745,10.550659 L 15.708745,10.579968 L 15.433242,10.579968 C 15.435848,10.621218 15.448223,10.652698 15.470367,10.674407 C 15.492728,10.695901 15.523774,10.706648 15.563505,10.706648 C 15.586517,10.706648 15.608769,10.703825 15.630263,10.698181 C 15.651973,10.692536 15.673466,10.684069 15.694743,10.672779 L 15.694743,10.729444 C 15.673249,10.738562 15.651214,10.745509 15.628635,10.750285 C 15.606056,10.755061 15.583151,10.757449 15.559922,10.757449 C 15.501738,10.757449 15.455604,10.740515 15.421519,10.706648 C 15.38765,10.672779 15.370717,10.626972 15.370717,10.569222 C 15.370717,10.509518 15.386783,10.46219 15.418913,10.427237 C 15.451261,10.392066 15.494791,10.374481 15.549501,10.374481 C 15.598566,10.374481 15.637319,10.39033 15.665759,10.422026 C 15.694417,10.453506 15.708745,10.496384 15.708745,10.550659 M 15.648825,10.533074 C 15.64839,10.500292 15.639164,10.474131 15.621145,10.454592 C 15.603342,10.435052 15.579678,10.425283 15.550152,10.425282 C 15.516718,10.425283 15.489906,10.434727 15.469716,10.453615 C 15.449742,10.472502 15.438236,10.499098 15.435196,10.533399 L 15.648825,10.533074 M 16.017139,10.439286 C 16.010409,10.435378 16.003027,10.432556 15.994995,10.430819 C 15.98718,10.428865 15.978495,10.427889 15.968943,10.427888 C 15.935075,10.427889 15.909023,10.438961 15.890786,10.461104 C 15.872766,10.483032 15.863757,10.514621 15.863757,10.55587 L 15.863757,10.748006 L 15.803511,10.748006 L 15.803511,10.383273 L 15.863757,10.383273 L 15.863757,10.439937 C 15.876349,10.417792 15.89274,10.401402 15.91293,10.390763 C 15.933121,10.379908 15.957653,10.374481 15.986528,10.374481 C 15.990653,10.374481 15.995212,10.374806 16.000206,10.375458 C 16.005199,10.375892 16.010735,10.376651 16.016814,10.377737 L 16.017139,10.439286 M 16.263985,10.241288 L 16.263985,10.291113 L 16.20667,10.291113 C 16.185177,10.291113 16.170197,10.295456 16.16173,10.30414 C 16.15348,10.312824 16.149355,10.328456 16.149355,10.351034 L 16.149355,10.383273 L 16.248029,10.383273 L 16.248029,10.429841 L 16.149355,10.429841 L 16.149355,10.748006 L 16.08911,10.748006 L 16.08911,10.429841 L 16.031794,10.429841 L 16.031794,10.383273 L 16.08911,10.383273 L 16.08911,10.357872 C 16.089109,10.317275 16.098553,10.287748 16.117441,10.269295 C 16.136329,10.250625 16.166289,10.241289 16.207321,10.241288 L 16.263985,10.241288 M 16.479569,10.564662 C 16.431154,10.564662 16.397612,10.570199 16.378942,10.581271 C 16.360271,10.592343 16.350935,10.61123 16.350935,10.637934 C 16.350935,10.659211 16.357882,10.676145 16.371777,10.688736 C 16.385889,10.701112 16.404994,10.707299 16.429092,10.707299 C 16.462309,10.707299 16.488904,10.695575 16.508877,10.672128 C 16.529068,10.648464 16.539162,10.617093 16.539162,10.578014 L 16.539162,10.564662 L 16.479569,10.564662 M 16.599083,10.539913 L 16.599083,10.748006 L 16.539162,10.748006 L 16.539162,10.692644 C 16.525486,10.714789 16.508443,10.73118 16.488035,10.741818 C 16.467627,10.752239 16.442661,10.757449 16.413135,10.757449 C 16.375793,10.757449 16.34605,10.747029 16.323906,10.726187 C 16.301978,10.705128 16.291014,10.677013 16.291014,10.641842 C 16.291014,10.60081 16.304692,10.569873 16.332047,10.549031 C 16.359619,10.52819 16.400651,10.517768 16.455144,10.517768 L 16.539162,10.517768 L 16.539162,10.511907 C 16.539162,10.484335 16.530044,10.463059 16.511808,10.448078 C 16.493788,10.432881 16.468387,10.425283 16.435605,10.425282 C 16.414763,10.425283 16.394463,10.427779 16.374708,10.432772 C 16.354952,10.437767 16.335955,10.445256 16.317718,10.455243 L 16.317718,10.399882 C 16.339646,10.391415 16.360922,10.385119 16.381547,10.380994 C 16.40217,10.376651 16.422253,10.374481 16.441792,10.374481 C 16.494548,10.374481 16.533953,10.388159 16.560005,10.415513 C 16.586057,10.442868 16.599083,10.484335 16.599083,10.539913 M 16.724134,10.241288 L 16.784054,10.241288 L 16.784054,10.748006 L 16.724134,10.748006 L 16.724134,10.241288 M 16.909106,10.241288 L 16.969026,10.241288 L 16.969026,10.748006 L 16.909106,10.748006 L 16.909106,10.241288 M 17.326594,10.39402 L 17.326594,10.450684 C 17.30966,10.442 17.292074,10.435486 17.273837,10.431145 C 17.255601,10.426803 17.236714,10.424631 17.217174,10.424631 C 17.187431,10.424631 17.165069,10.42919 17.150089,10.438308 C 17.135326,10.447428 17.127945,10.461104 17.127945,10.479341 C 17.127945,10.493236 17.133263,10.5042 17.143902,10.512232 C 17.154539,10.520048 17.175924,10.527538 17.208056,10.534702 L 17.228572,10.539261 C 17.271124,10.54838 17.301302,10.561297 17.319103,10.578014 C 17.337123,10.594514 17.346133,10.617636 17.346133,10.647379 C 17.346133,10.681247 17.332672,10.708059 17.305752,10.727815 C 17.279048,10.747571 17.242248,10.757449 17.195355,10.757449 C 17.175816,10.757449 17.155408,10.755496 17.134132,10.751588 C 17.113073,10.747896 17.09082,10.742253 17.067374,10.734653 L 17.067374,10.672779 C 17.089517,10.684285 17.111336,10.69297 17.13283,10.698832 C 17.154323,10.704477 17.175598,10.707299 17.196658,10.707299 C 17.224881,10.707299 17.246592,10.702522 17.261788,10.69297 C 17.276986,10.6832 17.284584,10.669523 17.284584,10.651938 C 17.284584,10.635655 17.279048,10.623171 17.267976,10.614487 C 17.257121,10.605803 17.233131,10.597445 17.196006,10.589412 L 17.175165,10.584527 C 17.138039,10.576711 17.111228,10.564771 17.094728,10.548705 C 17.078228,10.532423 17.069979,10.510171 17.069979,10.481947 C 17.069979,10.447645 17.082136,10.421158 17.106451,10.402487 C 17.130767,10.383816 17.165287,10.374481 17.21001,10.374481 C 17.232154,10.374481 17.252996,10.376109 17.272535,10.379365 C 17.292074,10.382622 17.310093,10.387507 17.326594,10.39402 M 17.68058,10.438635 L 17.68058,10.241288 L 17.740499,10.241288 L 17.740499,10.748006 L 17.68058,10.748006 L 17.68058,10.693296 C 17.667987,10.715006 17.65203,10.73118 17.632708,10.741818 C 17.613603,10.752239 17.59059,10.757449 17.56367,10.757449 C 17.519598,10.757449 17.483667,10.739864 17.455879,10.704694 C 17.428307,10.669523 17.41452,10.62328 17.41452,10.565965 C 17.41452,10.508651 17.428307,10.462408 17.455879,10.427237 C 17.483667,10.392066 17.519598,10.374481 17.56367,10.374481 C 17.59059,10.374481 17.613603,10.3798 17.632708,10.390437 C 17.65203,10.400859 17.667987,10.416925 17.68058,10.438635 M 17.476395,10.565965 C 17.476395,10.610037 17.485404,10.644664 17.503424,10.669849 C 17.52166,10.694816 17.546627,10.707299 17.578324,10.707299 C 17.610021,10.707299 17.634988,10.694816 17.653224,10.669849 C 17.671461,10.644664 17.68058,10.610037 17.68058,10.565965 C 17.68058,10.521894 17.671461,10.487375 17.653224,10.462408 C 17.634988,10.437224 17.610021,10.424631 17.578324,10.424631 C 17.546627,10.424631 17.52166,10.437224 17.503424,10.462408 C 17.485404,10.487375 17.476395,10.521894 17.476395,10.565965 M 18.029681,10.564662 C 17.981267,10.564662 17.947724,10.570199 17.929054,10.581271 C 17.910383,10.592343 17.901047,10.61123 17.901047,10.637934 C 17.901047,10.659211 17.907994,10.676145 17.921889,10.688736 C 17.936,10.701112 17.955106,10.707299 17.979204,10.707299 C 18.012421,10.707299 18.039016,10.695575 18.058989,10.672128 C 18.07918,10.648464 18.089275,10.617093 18.089275,10.578014 L 18.089275,10.564662 L 18.029681,10.564662 M 18.149195,10.539913 L 18.149195,10.748006 L 18.089275,10.748006 L 18.089275,10.692644 C 18.075598,10.714789 18.058554,10.73118 18.038147,10.741818 C 18.017739,10.752239 17.992773,10.757449 17.963247,10.757449 C 17.925906,10.757449 17.896163,10.747029 17.874018,10.726187 C 17.852091,10.705128 17.841126,10.677013 17.841126,10.641842 C 17.841126,10.60081 17.854804,10.569873 17.88216,10.549031 C 17.909732,10.52819 17.950763,10.517768 18.005256,10.517768 L 18.089275,10.517768 L 18.089275,10.511907 C 18.089275,10.484335 18.080156,10.463059 18.06192,10.448078 C 18.0439,10.432881 18.018499,10.425283 17.985718,10.425282 C 17.964874,10.425283 17.944576,10.427779 17.92482,10.432772 C 17.905063,10.437767 17.886067,10.445256 17.86783,10.455243 L 17.86783,10.399882 C 17.889757,10.391415 17.911034,10.385119 17.931659,10.380994 C 17.952283,10.376651 17.972365,10.374481 17.991904,10.374481 C 18.04466,10.374481 18.084064,10.388159 18.110117,10.415513 C 18.136169,10.442868 18.149195,10.484335 18.149195,10.539913 M 18.333515,10.279715 L 18.333515,10.383273 L 18.456938,10.383273 L 18.456938,10.429841 L 18.333515,10.429841 L 18.333515,10.627839 C 18.333515,10.657582 18.337532,10.676687 18.345565,10.685154 C 18.353814,10.693621 18.370423,10.697856 18.39539,10.697855 L 18.456938,10.697855 L 18.456938,10.748006 L 18.39539,10.748006 C 18.349147,10.748006 18.317233,10.739429 18.299648,10.722279 C 18.282062,10.70491 18.273269,10.673431 18.273269,10.627839 L 18.273269,10.429841 L 18.229306,10.429841 L 18.229306,10.383273 L 18.273269,10.383273 L 18.273269,10.279715 L 18.333515,10.279715 M 18.529885,10.604066 L 18.529885,10.383273 L 18.589805,10.383273 L 18.589805,10.601787 C 18.589805,10.636306 18.596535,10.66225 18.609995,10.679618 C 18.623456,10.696769 18.643646,10.705345 18.670567,10.705345 C 18.702915,10.705345 18.728425,10.695032 18.747096,10.674407 C 18.765984,10.653783 18.775428,10.625668 18.775428,10.590064 L 18.775428,10.383273 L 18.835348,10.383273 L 18.835348,10.748006 L 18.775428,10.748006 L 18.775428,10.691993 C 18.760881,10.714138 18.743947,10.730637 18.724626,10.741493 C 18.70552,10.752131 18.683267,10.757449 18.657866,10.757449 C 18.615966,10.757449 18.58416,10.744424 18.56245,10.718371 C 18.54074,10.692319 18.529885,10.654217 18.529885,10.604066 M 19.243392,10.453289 C 19.258372,10.426369 19.276283,10.406504 19.297125,10.393694 C 19.317966,10.380886 19.342499,10.374481 19.370723,10.374481 C 19.408715,10.374481 19.438024,10.387833 19.458649,10.414536 C 19.479273,10.441023 19.489586,10.478798 19.489587,10.527864 L 19.489587,10.748006 L 19.42934,10.748006 L 19.42934,10.529817 C 19.42934,10.494864 19.423153,10.46892 19.410777,10.451986 C 19.398403,10.435052 19.379515,10.426585 19.354115,10.426585 C 19.323068,10.426585 19.298536,10.436898 19.280516,10.457522 C 19.262496,10.478147 19.253487,10.506262 19.253488,10.541866 L 19.253488,10.748006 L 19.193241,10.748006 L 19.193241,10.529817 C 19.193241,10.494647 19.187054,10.468704 19.174678,10.451986 C 19.162304,10.435052 19.143199,10.426585 19.117364,10.426585 C 19.086752,10.426585 19.062437,10.437006 19.044417,10.457848 C 19.026398,10.478473 19.017388,10.506479 19.017388,10.541866 L 19.017388,10.748006 L 18.957143,10.748006 L 18.957143,10.383273 L 19.017388,10.383273 L 19.017388,10.439937 C 19.031065,10.417576 19.047457,10.401076 19.066562,10.390437 C 19.085667,10.3798 19.108354,10.374481 19.134624,10.374481 C 19.16111,10.374481 19.18358,10.381211 19.202034,10.394671 C 19.220704,10.408132 19.234491,10.42767 19.243392,10.453289 M 14.876537,11.271006 L 14.876537,11.050213 L 14.936457,11.050213 L 14.936457,11.268726 C 14.936457,11.303246 14.943187,11.329189 14.956648,11.346558 C 14.970108,11.363709 14.990298,11.372284 15.01722,11.372284 C 15.049568,11.372284 15.075077,11.361972 15.093748,11.341347 C 15.112636,11.320722 15.12208,11.292608 15.12208,11.257003 L 15.12208,11.050213 L 15.182001,11.050213 L 15.182001,11.414945 L 15.12208,11.414945 L 15.12208,11.358932 C 15.107534,11.381077 15.0906,11.397577 15.071279,11.408431 C 15.052173,11.41907 15.029919,11.424389 15.004519,11.424389 C 14.962618,11.424389 14.930812,11.411362 14.909103,11.38531 C 14.887392,11.359258 14.876537,11.321156 14.876537,11.271006 M 15.057275,10.90953 L 15.123383,10.90953 L 15.123383,10.975312 L 15.057275,10.975312 L 15.057275,10.90953 M 14.929945,10.90953 L 14.996052,10.90953 L 14.996052,10.975312 L 14.929945,10.975312 L 14.929945,10.90953 M 15.5679,11.232904 C 15.5679,11.188832 15.558782,11.154313 15.540546,11.129346 C 15.522526,11.104163 15.497667,11.091571 15.465971,11.09157 C 15.434273,11.091571 15.409307,11.104163 15.391071,11.129346 C 15.373051,11.154313 15.364041,11.188832 15.364041,11.232904 C 15.364041,11.276976 15.373051,11.311604 15.391071,11.336788 C 15.409307,11.361754 15.434273,11.374238 15.465971,11.374238 C 15.497667,11.374238 15.522526,11.361754 15.540546,11.336788 C 15.558782,11.311604 15.5679,11.276976 15.5679,11.232904 M 15.364041,11.105573 C 15.376633,11.083864 15.392481,11.067798 15.411587,11.057377 C 15.430908,11.046739 15.453921,11.04142 15.480626,11.04142 C 15.524913,11.04142 15.560844,11.059005 15.588417,11.094175 C 15.616205,11.129346 15.6301,11.175589 15.630101,11.232904 C 15.6301,11.290219 15.616205,11.336462 15.588417,11.371632 C 15.560844,11.406803 15.524913,11.424389 15.480626,11.424389 C 15.453921,11.424389 15.430908,11.419178 15.411587,11.408757 C 15.392481,11.398119 15.376633,11.381945 15.364041,11.360235 L 15.364041,11.414945 L 15.303794,11.414945 L 15.303794,10.908227 L 15.364041,10.908227 L 15.364041,11.105573 M 16.041401,11.217598 L 16.041401,11.246907 L 15.765898,11.246907 C 15.768503,11.288157 15.780878,11.319637 15.803022,11.341347 C 15.825384,11.36284 15.856429,11.373587 15.896159,11.373587 C 15.919172,11.373587 15.941425,11.370764 15.962918,11.365119 C 15.984629,11.359476 16.006122,11.351008 16.027398,11.339719 L 16.027398,11.396382 C 16.005904,11.405501 15.983868,11.412448 15.96129,11.417224 C 15.938711,11.422 15.915808,11.424389 15.892577,11.424389 C 15.834393,11.424389 15.788259,11.407455 15.754175,11.373587 C 15.720307,11.339719 15.703372,11.29391 15.703372,11.236161 C 15.703372,11.176457 15.719438,11.12913 15.751569,11.094175 C 15.783918,11.059005 15.827446,11.04142 15.882156,11.04142 C 15.931221,11.04142 15.969973,11.057269 15.998415,11.088965 C 16.027072,11.120446 16.041401,11.163323 16.041401,11.217598 M 15.981481,11.200013 C 15.981046,11.167231 15.971819,11.14107 15.9538,11.121531 C 15.935998,11.101992 15.912333,11.092222 15.882808,11.092222 C 15.849373,11.092222 15.822561,11.101666 15.80237,11.120553 C 15.782398,11.139442 15.770891,11.166036 15.767851,11.200339 L 15.981481,11.200013 M 16.349796,11.106224 C 16.343065,11.102317 16.335683,11.099495 16.32765,11.097757 C 16.319835,11.095805 16.31115,11.094827 16.301598,11.094827 C 16.26773,11.094827 16.241678,11.105899 16.223441,11.128044 C 16.205422,11.149971 16.196412,11.181559 16.196412,11.222809 L 16.196412,11.414945 L 16.136166,11.414945 L 16.136166,11.050213 L 16.196412,11.050213 L 16.196412,11.106877 C 16.209004,11.084733 16.225395,11.06834 16.245586,11.057702 C 16.265776,11.046848 16.290309,11.04142 16.319184,11.04142 C 16.323309,11.04142 16.327867,11.041746 16.332861,11.042397 C 16.337854,11.042831 16.34339,11.043592 16.349469,11.044676 L 16.349796,11.106224 M 16.644512,11.06096 L 16.644512,11.117622 C 16.627578,11.108939 16.609992,11.102426 16.591756,11.098083 C 16.573519,11.093742 16.554632,11.091571 16.535092,11.09157 C 16.505349,11.091571 16.482987,11.09613 16.468008,11.105248 C 16.453244,11.114366 16.445863,11.128044 16.445863,11.14628 C 16.445863,11.160175 16.451181,11.171139 16.46182,11.179171 C 16.472457,11.186987 16.493842,11.194477 16.525974,11.201641 L 16.54649,11.2062 C 16.589042,11.215319 16.61922,11.228237 16.637021,11.244953 C 16.655041,11.261453 16.664051,11.284575 16.664051,11.314318 C 16.664051,11.348186 16.65059,11.374997 16.62367,11.394754 C 16.596966,11.414511 16.560167,11.424389 16.513273,11.424389 C 16.493734,11.424389 16.473326,11.422434 16.45205,11.418527 C 16.430991,11.414837 16.408738,11.409191 16.385292,11.401593 L 16.385292,11.339719 C 16.407436,11.351225 16.429254,11.359909 16.450748,11.365771 C 16.472241,11.371415 16.493516,11.374238 16.514576,11.374238 C 16.542799,11.374238 16.56451,11.369462 16.579706,11.359909 C 16.594904,11.35014 16.602502,11.336462 16.602502,11.318877 C 16.602502,11.302594 16.596966,11.290111 16.585895,11.281427 C 16.575039,11.272743 16.551049,11.264384 16.513925,11.256351 L 16.493083,11.251467 C 16.455957,11.243651 16.429146,11.23171 16.412646,11.215644 C 16.396146,11.199362 16.387897,11.177109 16.387897,11.148885 C 16.387897,11.114584 16.400054,11.088097 16.424369,11.069427 C 16.448685,11.050755 16.483205,11.04142 16.527928,11.04142 C 16.550072,11.04142 16.570914,11.043048 16.590453,11.046305 C 16.609992,11.049562 16.628012,11.054446 16.644512,11.06096 M 17.020968,11.064216 L 17.020968,11.120228 C 17.004033,11.110893 16.98699,11.103946 16.96984,11.099386 C 16.952906,11.09461 16.935755,11.092222 16.918387,11.092222 C 16.879525,11.092222 16.849348,11.104597 16.827855,11.129346 C 16.806362,11.153879 16.795614,11.188398 16.795614,11.232904 C 16.795614,11.27741 16.806362,11.312039 16.827855,11.336788 C 16.849348,11.361321 16.879525,11.373587 16.918387,11.373587 C 16.935755,11.373587 16.952906,11.371307 16.96984,11.366748 C 16.98699,11.361972 17.004033,11.354916 17.020968,11.34558 L 17.020968,11.400942 C 17.00425,11.408757 16.986882,11.414618 16.968863,11.418527 C 16.95106,11.422434 16.932064,11.424389 16.911874,11.424389 C 16.856946,11.424389 16.813309,11.407129 16.78096,11.37261 C 16.748612,11.33809 16.732438,11.291522 16.732438,11.232904 C 16.732438,11.173418 16.748721,11.126633 16.781286,11.092548 C 16.814069,11.058462 16.858901,11.04142 16.915781,11.04142 C 16.934235,11.04142 16.952255,11.043373 16.96984,11.047281 C 16.987425,11.050973 17.004468,11.056617 17.020968,11.064216 M 17.429012,11.194802 L 17.429012,11.414945 L 17.369092,11.414945 L 17.369092,11.196757 C 17.369092,11.162238 17.362361,11.136403 17.3489,11.119251 C 17.33544,11.102101 17.315249,11.093524 17.288329,11.093524 C 17.255982,11.093524 17.230472,11.103837 17.211801,11.124461 C 17.19313,11.145086 17.183794,11.173201 17.183794,11.208806 L 17.183794,11.414945 L 17.123549,11.414945 L 17.123549,10.908227 L 17.183794,10.908227 L 17.183794,11.106877 C 17.198123,11.084949 17.214948,11.068558 17.234271,11.057702 C 17.25381,11.046848 17.27628,11.04142 17.301681,11.04142 C 17.343582,11.04142 17.375279,11.054446 17.396772,11.080498 C 17.418265,11.106334 17.429012,11.144435 17.429012,11.194802 M 17.760527,11.106224 C 17.753797,11.102317 17.746416,11.099495 17.738383,11.097757 C 17.730567,11.095805 17.721883,11.094827 17.712331,11.094827 C 17.678463,11.094827 17.652411,11.105899 17.634174,11.128044 C 17.616154,11.149971 17.607144,11.181559 17.607144,11.222809 L 17.607144,11.414945 L 17.546898,11.414945 L 17.546898,11.050213 L 17.607144,11.050213 L 17.607144,11.106877 C 17.619736,11.084733 17.636127,11.06834 17.656318,11.057702 C 17.676508,11.046848 17.701041,11.04142 17.729917,11.04142 C 17.734041,11.04142 17.7386,11.041746 17.743594,11.042397 C 17.748587,11.042831 17.754123,11.043592 17.760202,11.044676 L 17.760527,11.106224 M 17.822728,11.050213 L 17.882648,11.050213 L 17.882648,11.414945 L 17.822728,11.414945 L 17.822728,11.050213 M 17.822728,10.908227 L 17.882648,10.908227 L 17.882648,10.984105 L 17.822728,10.984105 L 17.822728,10.908227 M 18.066967,10.946654 L 18.066967,11.050213 L 18.19039,11.050213 L 18.19039,11.096781 L 18.066967,11.096781 L 18.066967,11.294778 C 18.066967,11.324521 18.070984,11.343627 18.079016,11.352094 C 18.087267,11.360561 18.103875,11.364794 18.128841,11.364794 L 18.19039,11.364794 L 18.19039,11.414945 L 18.128841,11.414945 C 18.082598,11.414945 18.050685,11.406369 18.033099,11.389219 C 18.015515,11.37185 18.006722,11.34037 18.006722,11.294778 L 18.006722,11.096781 L 17.962758,11.096781 L 17.962758,11.050213 L 18.006722,11.050213 L 18.006722,10.946654 L 18.066967,10.946654 M 18.328794,10.946654 L 18.328794,11.050213 L 18.452217,11.050213 L 18.452217,11.096781 L 18.328794,11.096781 L 18.328794,11.294778 C 18.328794,11.324521 18.332809,11.343627 18.340843,11.352094 C 18.349092,11.360561 18.365701,11.364794 18.390668,11.364794 L 18.452217,11.364794 L 18.452217,11.414945 L 18.390668,11.414945 C 18.344425,11.414945 18.312511,11.406369 18.294925,11.389219 C 18.27734,11.37185 18.268547,11.34037 18.268547,11.294778 L 18.268547,11.096781 L 18.224585,11.096781 L 18.224585,11.050213 L 18.268547,11.050213 L 18.268547,10.946654 L 18.328794,10.946654 M 18.843326,11.217598 L 18.843326,11.246907 L 18.567824,11.246907 C 18.570429,11.288157 18.582803,11.319637 18.604948,11.341347 C 18.62731,11.36284 18.658354,11.373587 18.698085,11.373587 C 18.721098,11.373587 18.74335,11.370764 18.764844,11.365119 C 18.786554,11.359476 18.808047,11.351008 18.829324,11.339719 L 18.829324,11.396382 C 18.80783,11.405501 18.785794,11.412448 18.763216,11.417224 C 18.740636,11.422 18.717732,11.424389 18.694503,11.424389 C 18.636319,11.424389 18.590185,11.407455 18.5561,11.373587 C 18.522232,11.339719 18.505298,11.29391 18.505298,11.236161 C 18.505298,11.176457 18.521363,11.12913 18.553495,11.094175 C 18.585843,11.059005 18.629372,11.04142 18.684082,11.04142 C 18.733146,11.04142 18.771899,11.057269 18.80034,11.088965 C 18.828997,11.120446 18.843326,11.163323 18.843326,11.217598 M 18.783407,11.200013 C 18.782972,11.167231 18.773745,11.14107 18.755725,11.121531 C 18.737923,11.101992 18.714259,11.092222 18.684733,11.092222 C 18.651299,11.092222 18.624486,11.101666 18.604296,11.120553 C 18.584323,11.139442 18.572816,11.166036 18.569777,11.200339 L 18.783407,11.200013 M 19.243555,11.194802 L 19.243555,11.414945 L 19.183635,11.414945 L 19.183635,11.196757 C 19.183634,11.162238 19.176904,11.136403 19.163445,11.119251 C 19.149984,11.102101 19.129793,11.093524 19.102873,11.093524 C 19.070524,11.093524 19.045014,11.103837 19.026344,11.124461 C 19.007673,11.145086 18.998337,11.173201 18.998337,11.208806 L 18.998337,11.414945 L 18.938091,11.414945 L 18.938091,11.050213 L 18.998337,11.050213 L 18.998337,11.106877 C 19.012666,11.084949 19.029492,11.068558 19.048814,11.057702 C 19.068353,11.046848 19.090823,11.04142 19.116224,11.04142 C 19.158124,11.04142 19.189822,11.054446 19.211315,11.080498 C 19.232809,11.106334 19.243554,11.144435 19.243555,11.194802 M 19.4282,11.332229 L 19.494308,11.332229 L 19.494308,11.414945 L 19.4282,11.414945 L 19.4282,11.332229 M 19.492355,11.284357 L 19.430155,11.284357 L 19.430155,11.234207 C 19.430155,11.212279 19.433194,11.194261 19.439272,11.180148 C 19.445352,11.166036 19.45816,11.149646 19.4777,11.130975 L 19.507009,11.101991 C 19.519384,11.090485 19.528285,11.079631 19.533712,11.069427 C 19.539357,11.059223 19.542179,11.048802 19.54218,11.038164 C 19.542179,11.018841 19.535015,11.00321 19.520686,10.991269 C 19.506574,10.979329 19.487795,10.973358 19.464348,10.973358 C 19.447197,10.973358 19.428852,10.977158 19.409313,10.984756 C 19.38999,10.992354 19.369801,11.003427 19.348741,11.017973 L 19.348741,10.95675 C 19.369149,10.944375 19.389773,10.935149 19.410615,10.929069 C 19.431674,10.92299 19.453384,10.919951 19.475746,10.919951 C 19.515693,10.919951 19.547715,10.930481 19.571814,10.95154 C 19.596129,10.972598 19.608287,11.000388 19.608288,11.034907 C 19.608287,11.051407 19.60438,11.067147 19.596564,11.082126 C 19.588748,11.09689 19.57507,11.113607 19.555531,11.132277 L 19.526874,11.160283 C 19.51667,11.170487 19.509397,11.17852 19.505054,11.184381 C 19.500929,11.190026 19.497999,11.195563 19.496263,11.20099 C 19.49496,11.205549 19.493982,11.211086 19.493331,11.217598 C 19.49268,11.224112 19.492355,11.233013 19.492355,11.244302 L 19.492355,11.284357"
     style="font-size:0.80000001px;font-style:normal;font-weight:normal;text-anchor:middle;fill:#000000;font-family:sans"
     id="text2313" />
  <line
     style="fill:none;fill-opacity:0;stroke:#000000;stroke-width:0.1"
     x1="9.4232512"
     y1="11.018168"
     x2="12.959461"
     y2="10.940469"
     id="line2317" />
  <polygon
     points="13.4883,11.4454 12.9939,11.7063 13.1134,11.4536 12.983,11.2064 13.4883,11.4454 "
     transform="translate(-0.1539394,-0.5131313)"
     style="fill:#000000"
     id="polygon2319" />
  <polygon
     points="13.4883,11.4454 12.9939,11.7063 13.1134,11.4536 12.983,11.2064 13.4883,11.4454 "
     transform="translate(-0.1539394,-0.5131313)"
     style="fill:none;fill-opacity:0;stroke:#000000;stroke-width:0.1"
     id="polygon2321" />
  <polyline
     style="fill:none;fill-opacity:0;stroke:#000000;stroke-width:0.1"
     points="17.4674,14.9858 17.4674,17.9551 5.9501,17.9551 5.9501,20.4377 "
     id="polyline2323"
     transform="translate(-0.1539394,-0.5131313)" />
  <polygon
     points="5.9501,20.8127 5.7001,20.3127 5.9501,20.4377 6.2001,20.3127 5.9501,20.8127 "
     transform="translate(-0.1539394,-0.5131313)"
     style="fill:#000000"
     id="polygon2325" />
  <polygon
     points="5.9501,20.8127 5.7001,20.3127 5.9501,20.4377 6.2001,20.3127 5.9501,20.8127 "
     transform="translate(-0.1539394,-0.5131313)"
     style="fill:none;fill-opacity:0;stroke:#000000;stroke-width:0.1"
     id="polygon2327" />
  <rect
     width="7.4210901"
     height="1.9"
     x="24.335659"
     y="9.9618692"
     style="fill:#ffffff"
     id="rect2329" />
  <rect
     width="7.4210901"
     height="1.9"
     x="24.335659"
     y="9.9618692"
     style="fill:none;fill-opacity:0;stroke:#000000;stroke-width:0.1"
     id="rect2331" />
  <text
     x="28.052101"
     y="11.12019"
     style="font-size:0.66739523px;font-style:normal;font-weight:normal;text-anchor:middle;fill:#000000;font-family:sans"
     id="text2333">Bleibt im Kühlschrank</text>
  <line
     style="fill:none;fill-opacity:0;stroke:#000000;stroke-width:0.1"
     x1="21.180759"
     y1="10.929769"
     x2="23.84886"
     y2="10.914669"
     id="line2335" />
  <polygon
     points="24.3778,11.4256 23.8792,11.6785 24.0028,11.4278 23.8764,11.1785 24.3778,11.4256 "
     transform="translate(-0.1539394,-0.5131313)"
     style="fill:#000000"
     id="polygon2337" />
  <polygon
     points="24.3778,11.4256 23.8792,11.6785 24.0028,11.4278 23.8764,11.1785 24.3778,11.4256 "
     transform="translate(-0.1539394,-0.5131313)"
     style="fill:none;fill-opacity:0;stroke:#000000;stroke-width:0.1"
     id="polygon2339" />
  <text
     x="10.806761"
     y="10.561869"
     style="font-size:0.80000001px;font-style:normal;font-weight:normal;text-anchor:start;fill:#000000;font-family:sans"
     id="text2341">Ja ?</text>
  <text
     x="6.206811"
     y="15.911868"
     style="font-size:0.80000001px;font-style:normal;font-weight:normal;text-anchor:start;fill:#000000;font-family:sans"
     id="text2343">Nein ?</text>
  <text
     x="21.437428"
     y="10.411869"
     style="font-size:0.80000001px;font-style:normal;font-weight:normal;text-anchor:start;fill:#000000;font-family:sans"
     id="text2345">Nein ?</text>
  <text
     x="17.60676"
     y="16.011868"
     style="font-size:0.80000001px;font-style:normal;font-weight:normal;text-anchor:start;fill:#000000;font-family:sans"
     id="text2347">Ja ?</text>
</svg>
